ply
format ascii 1.0
comment Created by Blender 2.58 (sub 0) - www.blender.org, source file: 'amatureTest2.blend'
element vertex 32
property float x
property float y
property float z
property float nx
property float ny
property float nz
element face 10
property list uchar uint vertex_indices
end_header
1.000000 1.000000 -1.000000 -0.000000 -0.000000 -1.000000 
1.000000 -1.000000 -1.000000 -0.000000 -0.000000 -1.000000 
-1.000000 -1.000000 -1.000000 -0.000000 -0.000000 -1.000000 
-1.000000 1.000000 -1.000000 -0.000000 -0.000000 -1.000000 
1.000000 0.999999 0.999999 0.000000 0.000000 1.000000 
-1.000000 1.000000 0.999999 0.000000 0.000000 1.000000 
-1.000000 -1.000000 0.999999 0.000000 0.000000 1.000000 
0.999999 -1.000001 0.999999 0.000000 0.000000 1.000000 
1.000000 1.000000 -1.000000 1.000000 -0.000000 0.000000 
1.000000 0.999999 0.999999 1.000000 -0.000000 0.000000 
0.999999 -1.000001 0.999999 1.000000 -0.000000 0.000000 
1.000000 -1.000000 -1.000000 1.000000 -0.000000 0.000000 
1.000000 -1.000000 -1.000000 -0.000000 -1.000000 -0.000000 
0.999999 -1.000001 0.999999 -0.000000 -1.000000 -0.000000 
-1.000000 -1.000000 0.999999 -0.000000 -1.000000 -0.000000 
-1.000000 -1.000000 -1.000000 -0.000000 -1.000000 -0.000000 
-1.000000 -1.000000 -1.000000 -1.000000 0.000000 -0.000000 
-1.000000 -1.000000 0.999999 -1.000000 0.000000 -0.000000 
-1.000000 1.000000 0.999999 -1.000000 0.000000 -0.000000 
-1.000000 1.000000 -1.000000 -1.000000 0.000000 -0.000000 
1.000001 3.022284 0.999999 -0.000000 -0.000000 1.000000 
-1.000000 3.022284 0.999999 -0.000000 -0.000000 1.000000 
-1.000000 3.022284 0.999999 -1.000000 0.000000 -0.000000 
-0.999999 3.022285 -1.000001 -1.000000 0.000000 -0.000000 
1.000000 3.022284 -1.000001 1.000000 -0.000000 -0.000000 
1.000001 3.022284 0.999999 1.000000 -0.000000 -0.000000 
-0.999999 3.022285 -1.000001 -0.000000 -0.000000 -1.000000 
1.000000 3.022284 -1.000001 -0.000000 -0.000000 -1.000000 
1.000001 3.022284 0.999999 0.000000 1.000000 0.000000 
1.000000 3.022284 -1.000001 0.000000 1.000000 0.000000 
-0.999999 3.022285 -1.000001 0.000000 1.000000 0.000000 
-1.000000 3.022284 0.999999 0.000000 1.000000 0.000000 
4 0 1 2 3
4 4 5 6 7
4 8 9 10 11
4 12 13 14 15
4 16 17 18 19
4 5 4 20 21
4 19 18 22 23
4 9 8 24 25
4 0 3 26 27
4 28 29 30 31
